HIERARCHY
ROOT Hips
{
	OFFSET 0.000000 0.000000 0.000000
	CHANNELS 6 Xposition Yposition Zposition Zrotation Yrotation Xrotation 
	JOINT LeftUpLeg_virtual
	{
		OFFSET 0.000000 0.000000 0.000000
		CHANNELS 3 Zrotation Yrotation Xrotation
		JOINT LeftUpLeg
		{
			OFFSET 10.205400 -3.823500 0.155100
			CHANNELS 3 Zrotation Yrotation Xrotation
			JOINT LeftLeg
			{
				OFFSET 0.708757 -12.982077 0.567790
				CHANNELS 3 Zrotation Yrotation Xrotation
				JOINT LeftFoot
				{
					OFFSET -0.708756 -10.717838 -2.184338
					CHANNELS 3 Zrotation Yrotation Xrotation
					JOINT LeftToeBase
					{
						OFFSET 0.108149 -7.191104 7.560241
						CHANNELS 3 Zrotation Yrotation Xrotation
						End Site
						{
							OFFSET 0.000000 0.000000 0.000000
						}
					}
				}
			}
		}
	}
	JOINT RightUpLeg_virtual
	{
		OFFSET 0.000000 0.000000 0.000000
		CHANNELS 3 Zrotation Yrotation Xrotation
		JOINT RightUpLeg
		{
			OFFSET -10.205400 -3.823500 0.005500
			CHANNELS 3 Zrotation Yrotation Xrotation
			JOINT RightLeg
			{
				OFFSET -0.708756 -12.982134 0.610632
				CHANNELS 3 Zrotation Yrotation Xrotation
				JOINT RightFoot
				{
					OFFSET 0.708754 -10.717769 -1.945823
					CHANNELS 3 Zrotation Yrotation Xrotation
					JOINT RightToeBase
					{
						OFFSET -0.108140 -7.191069 7.372968
						CHANNELS 3 Zrotation Yrotation Xrotation
						End Site
						{
							OFFSET 0.000000 0.000000 0.000000
						}
					}
				}
			}
		}
	}
	JOINT Spine_virtual
	{
		OFFSET 0.000000 0.000000 0.000000
		CHANNELS 3 Zrotation Yrotation Xrotation
		JOINT Spine
		{
			OFFSET 0.000000 6.876099 0.125700
			CHANNELS 3 Zrotation Yrotation Xrotation
			JOINT Spine1
			{
				OFFSET 0.000000 8.022060 0.146608
				CHANNELS 3 Zrotation Yrotation Xrotation
				JOINT Spine2
				{
					OFFSET 0.000000 9.168068 0.167552
					CHANNELS 3 Zrotation Yrotation Xrotation
					JOINT Neck_virtual
					{
						OFFSET 0.000000 0.000000 0.000000
						CHANNELS 3 Zrotation Yrotation Xrotation
						JOINT Neck
						{
							OFFSET 0.000000 10.314075 0.188496
							CHANNELS 3 Zrotation Yrotation Xrotation
							JOINT Head
							{
								OFFSET 0.000000 7.643700 -2.377400
								CHANNELS 3 Zrotation Yrotation Xrotation
								End Site
								{
									OFFSET 0.000000 0.000000 0.000000
								}
							}
						}
					}
					JOINT LeftShoulder_virtual
					{
						OFFSET 0.000000 0.000000 0.000000
						CHANNELS 3 Zrotation Yrotation Xrotation
						JOINT LeftShoulder
						{
							OFFSET 4.392200 8.824978 0.174984
							CHANNELS 3 Zrotation Yrotation Xrotation
							JOINT LeftArm
							{
								OFFSET 8.771219 -2.981674 -0.026999
								CHANNELS 3 Zrotation Yrotation Xrotation
								JOINT LeftForeArm
								{
									OFFSET 8.512804 0.000000 -0.000000
									CHANNELS 3 Zrotation Yrotation Xrotation
									JOINT LeftHand
									{
										OFFSET 18.484802 0.000000 -0.000000
										CHANNELS 3 Zrotation Yrotation Xrotation
										End Site
										{
											OFFSET 0.000000 0.000000 0.000000
										}
									}
								}
							}
						}
					}
					JOINT RightShoulder_virtual
					{
						OFFSET 0.000000 0.000000 0.000000
						CHANNELS 3 Zrotation Yrotation Xrotation
						JOINT RightShoulder
						{
							OFFSET -4.392200 8.824993 0.141379
							CHANNELS 3 Zrotation Yrotation Xrotation
							JOINT RightArm
							{
								OFFSET -8.771282 -2.981682 -0.094208
								CHANNELS 3 Zrotation Yrotation Xrotation
								JOINT RightForeArm
								{
									OFFSET -8.494598 0.000000 0.000000
									CHANNELS 3 Zrotation Yrotation Xrotation
									JOINT RightHand
									{
										OFFSET -18.483803 0.000000 0.000001
										CHANNELS 3 Zrotation Yrotation Xrotation
										End Site
										{
											OFFSET 0.000000 0.000000 0.000000
										}
									}
								}
							}
						}
					}
				}
			}
		}
	}
}
MOTION
Frames: 11
Frame Time: 0.033333
-1.480663 35.820030 12.434318 -179.968791 3.555022 -179.865314 -3.155619 -3.283304 10.353599 -17.904173 7.416104 -17.366195 17.601932 6.707917 21.051528 1.455212 -5.808973 3.443594 0.000000 0.000000 0.000000 1.113314 -0.812426 8.843562 0.434124 3.237771 -13.430187 -8.946144 1.024070 17.124287 8.676902 1.280561 3.322623 0.000000 0.000000 0.000000 0.706597 0.323107 -0.611930 -4.593433 1.297982 -6.231468 -0.231805 -3.189408 2.916556 -0.013868 0.000975 0.026424 -0.574649 -1.645243 5.281121 -8.092297 6.290008 6.755381 0.000000 0.000000 0.000000 0.964522 -0.795416 2.642967 -6.351350 1.750956 -5.922985 -2.905031 6.697337 -39.091256 2.794353 -44.430309 -4.002962 0.000000 0.000000 0.000000 -2.396810 -0.089637 2.078602 19.374525 -4.414841 -10.530148 13.786062 -13.232721 -46.634104 -1.483939 27.662488 2.325419 0.000000 0.000000 0.000000 
-1.462309 35.814964 12.419647 -179.955732 3.463289 -179.803897 -3.218350 -3.429033 10.501306 -17.789651 7.177674 -17.307578 17.639676 6.604157 21.160235 1.408861 -5.843040 3.326532 0.000000 0.000000 0.000000 1.064811 -0.820769 8.999267 0.449914 3.125017 -13.401628 -9.169155 0.805516 17.284407 8.428308 1.042534 3.279266 0.000000 0.000000 0.000000 0.710537 0.284686 -0.625480 -4.636790 1.303131 -6.241615 -0.248969 -3.200384 2.926638 -0.024165 -0.018585 0.037591 -0.572002 -1.576372 5.275659 -8.081539 6.215925 6.792471 0.000000 0.000000 0.000000 0.939756 -0.804118 2.628467 -6.326522 1.716482 -5.950930 -2.852858 6.514309 -39.043988 2.680640 -44.523384 -3.904208 0.000000 0.000000 0.000000 -2.412379 -0.087830 2.061997 19.421112 -4.343415 -10.521952 13.790803 -13.253026 -46.447049 -1.530241 27.853033 2.292344 0.000000 0.000000 0.000000 
-1.443132 35.813637 12.397870 -179.915352 3.495547 -179.760484 -3.188104 -3.416298 10.586506 -17.786163 7.034433 -17.408385 17.641776 6.441010 21.198937 1.611134 -5.897853 3.336984 0.000000 0.000000 0.000000 1.107204 -0.822511 9.089994 0.493320 3.064090 -13.515106 -9.132128 0.808229 17.303815 8.445163 1.046567 3.285103 0.000000 0.000000 0.000000 0.717271 0.295200 -0.675819 -4.662572 1.325763 -6.267263 -0.255490 -3.187806 2.959933 -0.034945 -0.013692 0.022953 -0.606164 -1.635243 5.327434 -8.052650 6.033808 6.944546 0.000000 0.000000 0.000000 0.951312 -0.801620 2.606696 -6.335812 1.719854 -5.924515 -2.771781 6.320447 -39.030218 2.680137 -44.676623 -3.965142 0.000000 0.000000 0.000000 -2.409523 -0.092089 2.065917 19.494072 -4.240777 -10.533351 13.849228 -13.385280 -46.298895 -1.510596 28.046778 2.336004 0.000000 0.000000 0.000000 
-1.430102 35.815639 12.376066 -179.889575 3.498575 -179.813650 -3.212769 -3.443437 10.668440 -17.714278 6.824440 -17.420256 17.697189 6.418292 21.314094 1.555110 -5.738417 3.287057 0.000000 0.000000 0.000000 1.093003 -0.866888 9.171787 0.509291 3.025938 -13.557815 -9.077683 0.750794 17.317446 8.457907 1.069876 3.339179 0.000000 0.000000 0.000000 0.713456 0.329175 -0.648462 -4.704251 1.370700 -6.311407 -0.268955 -3.158678 2.950157 -0.034684 0.013644 0.035207 -0.630197 -1.618754 5.312530 -7.924870 5.802306 7.137094 0.000000 0.000000 0.000000 0.920572 -0.886037 2.649250 -6.446905 1.697229 -5.943719 -2.626624 6.139434 -38.958074 2.615610 -44.832108 -3.912566 0.000000 0.000000 0.000000 -2.410232 -0.160465 2.023190 19.540449 -4.179015 -10.414993 13.989517 -13.577527 -46.187006 -1.589845 28.371417 2.278359 0.000000 0.000000 0.000000 
-1.420438 35.821766 12.348846 -179.907169 3.471066 -179.805140 -3.267666 -3.562025 10.659686 -17.676036 6.850115 -17.416352 17.760435 6.288367 21.417358 1.625225 -5.672020 3.203855 0.000000 0.000000 0.000000 1.053944 -0.939558 9.164417 0.533674 2.962898 -13.559750 -9.039889 0.754248 17.317854 8.486603 1.053397 3.388261 0.000000 0.000000 0.000000 0.665442 0.239872 -0.717343 -4.732581 1.317653 -6.390489 -0.260292 -3.207517 2.963322 0.016378 -0.027845 0.047841 -0.723764 -1.613697 5.397358 -7.722882 5.436832 7.423735 0.000000 0.000000 0.000000 0.884450 -0.880434 2.627238 -6.617773 1.844641 -5.800997 -2.551277 6.086632 -39.018665 2.652540 -44.998290 -3.996579 0.000000 0.000000 0.000000 -2.452783 -0.118802 2.128413 19.562992 -3.896360 -10.492754 14.026354 -13.793768 -46.270092 -1.448376 28.640896 2.389551 0.000000 0.000000 0.000000 
-1.411997 35.830601 12.315789 -179.928425 3.643357 -179.737412 -3.365500 -3.525074 10.582265 -17.620857 6.762951 -17.366673 17.814129 6.283833 21.468968 1.630107 -5.647441 3.210014 0.000000 0.000000 0.000000 1.010183 -0.909136 9.069865 0.573790 2.923892 -13.516994 -8.974485 0.751689 17.328726 8.565656 1.059459 3.544929 0.000000 0.000000 0.000000 0.622364 0.240310 -0.842195 -4.764979 1.328307 -6.521937 -0.276412 -3.230548 3.014313 -0.030570 -0.018011 0.035000 -0.693942 -1.690157 5.480548 -7.309524 4.997932 7.738370 0.000000 0.000000 0.000000 0.939865 -0.832705 2.715531 -6.849057 1.958841 -6.061905 -2.540269 6.126934 -39.067166 2.349732 -45.131820 -3.776660 0.000000 0.000000 0.000000 -2.397635 -0.147092 2.242568 19.559780 -3.671953 -10.437042 14.073360 -14.055485 -46.471661 -1.365653 28.875612 2.479003 0.000000 0.000000 0.000000 
-1.402696 35.838642 12.285732 -179.991686 3.689276 -179.757178 -3.485903 -3.620422 10.517943 -17.506226 6.631026 -17.264442 17.906632 6.360333 21.607976 1.619632 -5.621939 3.155739 0.000000 0.000000 0.000000 0.928422 -0.962095 8.999952 0.581520 2.884473 -13.428431 -8.931422 0.695020 17.307278 8.644544 1.056981 3.668536 0.000000 0.000000 0.000000 0.575733 0.226935 -0.863029 -4.787228 1.339590 -6.614414 -0.234538 -3.244000 3.060980 -0.020460 0.005654 0.036621 -0.622805 -1.737463 5.523433 -6.715338 4.496965 8.127701 0.000000 0.000000 0.000000 0.953811 -0.947965 2.804666 -7.173848 1.976607 -6.005689 -2.783464 6.322324 -39.297258 2.259084 -45.163629 -3.756977 0.000000 0.000000 0.000000 -2.344472 -0.261707 2.282978 19.527186 -3.512125 -10.326788 14.235840 -14.323599 -46.762743 -1.294551 28.962208 2.515427 0.000000 0.000000 0.000000 
-1.390801 35.844093 12.263606 -179.975252 3.934706 -179.755880 -3.513264 -3.541505 10.467829 -17.471306 6.594819 -17.225027 17.978518 6.304721 21.695169 1.643125 -5.586875 3.126966 0.000000 0.000000 0.000000 0.914687 -0.884389 8.915167 0.594581 2.861589 -13.372739 -8.905756 0.690344 17.319510 8.733387 1.029334 3.770985 0.000000 0.000000 0.000000 0.562350 0.319732 -0.852318 -4.763669 1.410908 -6.681551 -0.150175 -3.395165 3.121941 -0.003734 -0.090834 0.060265 -0.574096 -1.758076 5.597521 -5.959524 3.845722 8.595230 0.000000 0.000000 0.000000 1.006323 -0.931362 2.871563 -7.541852 2.118093 -6.016276 -3.323593 6.750536 -39.589050 2.096757 -45.257018 -3.659277 0.000000 0.000000 0.000000 -2.292995 -0.197503 2.305360 19.392131 -3.188280 -10.171494 14.555999 -14.695826 -47.233777 -1.155886 29.090510 2.599605 0.000000 0.000000 0.000000 
-1.378908 35.841595 12.252545 -179.898877 4.037569 -179.763271 -3.447763 -3.603303 10.435625 -17.520863 6.615226 -17.246687 18.106230 6.134287 21.795687 1.740006 -5.494409 3.124679 0.000000 0.000000 0.000000 0.966648 -0.936998 8.889447 0.610571 2.824576 -13.371326 -8.852967 0.712584 17.321630 8.831626 1.015494 3.818017 0.000000 0.000000 0.000000 0.600563 0.200537 -0.811788 -4.673495 1.292056 -6.706613 -0.002570 -3.366745 3.173953 0.008039 -0.009390 0.060206 -0.465002 -1.811028 5.760175 -5.013580 3.104903 9.167702 0.000000 0.000000 0.000000 1.076407 -1.027429 2.998825 -7.885876 2.151659 -5.740549 -4.352982 7.584431 -39.967115 2.121283 -45.374869 -3.702755 0.000000 0.000000 0.000000 -2.233614 -0.316527 2.501499 19.184231 -2.993891 -10.112726 15.179979 -14.824562 -47.787944 -1.069989 29.124415 2.574964 0.000000 0.000000 0.000000 
-1.374972 35.830856 12.256791 -179.895394 4.260439 -179.742862 -3.444392 -3.583017 10.424801 -17.567508 6.596772 -17.333188 18.222362 6.134335 21.938325 1.753791 -5.464655 3.090470 0.000000 0.000000 0.000000 0.957317 -0.881386 8.851790 0.586295 2.852527 -13.480338 -8.840733 0.716009 17.395660 8.944954 0.990149 3.784205 0.000000 0.000000 0.000000 0.627666 0.200115 -0.796742 -4.599468 1.278542 -6.712689 0.148661 -3.423999 3.248620 -0.000087 -0.012860 0.045674 -0.271402 -1.824362 5.912752 -3.911882 2.341003 9.723978 0.000000 0.000000 0.000000 1.194344 -1.079766 3.086953 -8.283933 2.194530 -5.641922 -5.879065 8.698414 -40.091978 1.940936 -45.539480 -3.526339 0.000000 0.000000 0.000000 -2.118444 -0.415375 2.650787 18.915630 -2.669269 -9.798180 16.071124 -14.946189 -48.518382 -1.018282 29.377689 2.475200 0.000000 0.000000 0.000000 
-1.377320 35.812820 12.279788 -179.975403 4.606178 -179.738354 -3.509678 -3.446179 10.441072 -17.596924 6.598829 -17.444529 18.284616 6.263467 22.125018 1.690148 -5.483366 2.956172 0.000000 0.000000 0.000000 0.865197 -0.733301 8.820861 0.547599 2.917611 -13.643443 -8.862229 0.721632 17.588526 9.076198 0.942809 3.681587 0.000000 0.000000 0.000000 0.619369 0.221963 -0.733591 -4.531595 1.298948 -6.657680 0.322674 -3.455538 3.348356 0.010832 0.009367 0.054088 -0.066207 -1.925004 6.094044 -2.730338 1.557179 10.362297 0.000000 0.000000 0.000000 1.342985 -1.065005 3.208766 -8.732462 2.278595 -5.603710 -7.953627 10.037261 -39.977347 1.680621 -45.595133 -3.194267 0.000000 0.000000 0.000000 -1.971082 -0.373245 2.710349 18.593334 -2.503418 -9.608270 17.265859 -14.952254 -49.405460 -0.856240 29.854986 2.484155 0.000000 0.000000 0.000000 
